PathFileType	4	(X/Y/Z)	OpenSim_Sub04_CSBaseline_Gyro.trc
DataRate	CameraRate	NumFrames	NumMarkers	Units	OrigDataRate	OrigDataStartFrame	OrigNumFrames
100	100	27	8	m	100	1	8083
Frame#	Time	torso_imu_offset_imu	pelvis_imu_offset_imu	tibia_r_imu_offset_imu	femur_r_imu_offset_imu	tibia_l_imu_offset_imu	femur_l_imu_offset_imu	toes_r_imu_offset_imu	toes_l_imu_offset_imu
				X1	Y1	Z1	X2	Y2	Z2	X3	Y3	Z3	X4	Y4	Z4	X5	Y5	Z5	X6	Y6	Z6	X7	Y7	Z7	X8		Y8	Z8	

1	0	-0.06361465	-0.30192970	-0.07046203	-0.09244538	-0.06409351	-0.03671808	-0.09451538	-0.02032720	0.02620594	-0.09350650	0.01162747	-0.02563492	0.02951289	0.02155063	0.01865451	-0.09759421	-0.06294561	0.01628749	-0.01461013	-0.00179912	0.02563050	-0.01196025	0.01736058	0.00599085
2	0.01000000	-0.07662821	-0.31667935	-0.07731353	-0.08451103	-0.06960973	-0.03636406	-0.09120261	-0.01453506	0.02550213	-0.07983100	0.01174141	-0.02815617	0.03879849	0.02168872	0.01907524	-0.09171404	-0.05519658	0.01779059	-0.01328689	0.00034968	0.02326051	-0.00699668	0.01312210	0.00246464
3	0.02000000	-0.08694835	-0.33402179	-0.07746475	-0.07694477	-0.06728435	-0.03309071	-0.07991066	-0.01066459	0.02657041	-0.06856281	0.01285305	-0.02538514	0.03185174	0.02166258	0.01649897	-0.08118218	-0.04175217	0.02205346	-0.01188587	0.00204228	0.02134391	-0.00588720	0.01525194	0.00183423
4	0.03000000	-0.10069406	-0.33668443	-0.05105158	-0.05946306	-0.07483802	-0.02533369	-0.06773976	-0.01138422	0.02848448	-0.05959095	0.01160370	-0.02087947	0.02627404	0.01614429	0.01763311	-0.07515872	-0.02669736	0.02516082	-0.01292668	0.00367665	0.02188298	-0.00715295	0.01352558	0.00305623
5	0.04000000	-0.10497578	-0.34478647	-0.01156888	-0.04540129	-0.07661251	-0.02648633	-0.06011573	-0.01661140	0.02304820	-0.05366952	0.01308883	-0.01441368	0.03397084	0.01610578	0.01826813	-0.06431530	-0.01271397	0.02423551	-0.01130659	0.00115780	0.01754966	-0.00719440	0.01526088	0.00409883
6	0.05000000	-0.08254465	-0.34565607	0.03720281	-0.02422013	-0.07561268	-0.01616748	-0.05704226	-0.01020203	0.02413398	-0.04501744	0.01420959	-0.01509010	0.04065290	0.01727517	0.01226683	-0.06256026	-0.00807569	0.02082056	-0.01040613	0.00195793	0.01526306	-0.00812109	0.01677102	0.00039294
7	0.06000000	-0.07119146	-0.35591306	0.07282745	-0.01138034	-0.06615848	-0.00855203	-0.05199613	-0.00995275	0.02168856	-0.03200237	0.00880727	-0.02015720	0.04230522	0.00939065	0.01446512	-0.05160882	-0.00836607	0.00943829	-0.00533106	0.00218236	0.01670171	-0.00870434	0.01752739	0.00213177
8	0.07000000	-0.08972734	-0.35963847	0.09976258	0.00587903	-0.05166097	-0.01081311	-0.04508755	-0.00471932	0.01998392	-0.01462141	0.00198349	-0.03117292	0.04554128	0.01320164	0.00941323	-0.03144716	-0.01321537	0.00089644	-0.00986212	-0.00111151	0.01567737	-0.00035141	0.01231109	0.00203707
9	0.08000000	-0.07586449	-0.37239239	0.09755588	0.02692327	-0.04456836	-0.00151325	-0.02551017	-0.00065951	0.01543548	0.00714353	0.00852860	-0.03805262	0.04745504	0.01116471	0.00878211	-0.01438971	-0.01652615	-0.01009213	-0.01086245	0.00141505	0.01743035	-0.00572194	0.00317543	0.00268054
10	0.09000000	-0.07108716	-0.38400696	0.08308290	0.03902133	-0.03530316	-0.00089334	-0.00654488	0.00660124	0.01221704	0.03666989	0.01142138	-0.04323031	0.05076497	0.00880459	0.00906906	0.00788871	-0.01818867	-0.01557247	-0.00453726	-0.00187505	0.01365593	-0.00032708	-0.01306013	0.00962687
11	0.10000000	-0.06382715	-0.38338795	0.06245650	0.05523941	-0.03868016	0.00339589	0.00750228	0.00759055	0.01099472	0.06731471	0.00969239	-0.04775122	0.03955338	0.00407069	0.03670989	0.02047493	-0.01182322	-0.02354712	-0.00482677	-0.00366241	0.01209894	0.00989724	0.00878288	0.00373848
12	0.11000000	-0.04962898	-0.38043048	0.05182646	0.06921738	-0.04580041	0.00879682	0.02028645	0.00514066	0.00938120	0.09078210	0.00361520	-0.04945981	0.04839868	0.00875021	0.08069265	0.03040902	0.00024363	-0.02229198	0.02078381	-0.00920178	-0.00136367	0.01326774	0.00287104	-0.00432052
13	0.12000000	-0.03819712	-0.38322636	0.05055869	0.08384328	-0.04627556	0.01730919	0.03825399	-0.00192243	-0.01469634	0.10381051	0.00639609	-0.04657504	0.07728948	0.01455240	0.07701520	0.04019418	0.00923930	-0.01247161	0.01166926	-0.00363858	-0.01177823	0.01822719	0.00174065	-0.00531086
14	0.13000000	-0.02442291	-0.38551419	0.03568108	0.08891039	-0.04154866	0.01379098	0.07349722	-0.00414034	-0.07328707	0.09990295	0.00558322	-0.03606294	0.08878954	-0.00528116	0.02946997	0.06053091	0.02494347	-0.00090511	-0.00615306	0.01377826	-0.00229889	0.01527968	-0.01234350	-0.00829276
15	0.14000000	-0.01600909	-0.38478666	0.02417467	0.09227252	-0.02769037	0.01013648	0.06082984	0.01120414	-0.12519847	0.09892671	0.01357571	-0.02889746	0.08942114	0.00258903	0.00779421	0.06933978	0.02868442	0.02269336	-0.00674377	0.01242475	0.00044190	0.01622599	0.00104158	-0.00678859
16	0.15000000	-0.01513937	-0.38094402	0.01208166	0.10363039	-0.02202583	0.01486585	0.02577164	0.01782762	-0.11108069	0.09660912	0.02113373	-0.02088704	0.06956956	0.00655115	0.02718155	0.09219369	0.01376034	0.03951245	0.00176002	0.00591923	0.00291837	0.00239726	0.01177269	-0.00051754
17	0.16000000	-0.00194661	-0.36807733	0.00339112	0.10827117	-0.01568785	0.02031244	0.01349079	0.01740361	-0.07537776	0.09939897	0.01841437	-0.02997931	0.05232271	0.00220487	0.04770702	0.10566501	-0.00128884	0.04795446	0.00167932	0.00674562	0.00177600	-0.00223189	0.01280506	0.00345240
18	0.17000000	0.01022416	-0.34966663	-0.00551808	0.11344966	-0.01352687	0.02549852	0.03859013	0.00811982	-0.06108926	0.11442442	0.00699109	-0.05183408	0.05190975	-0.00548507	0.03687595	0.11765826	-0.01239878	0.04654587	0.00468244	0.01035665	0.00216164	-0.00628542	0.01147279	0.00436039
19	0.18000000	0.02118879	-0.31963565	-0.00889860	0.10979399	-0.00363481	0.03366862	0.06506964	0.00299429	-0.06404492	0.13339851	-0.00076232	-0.07435441	0.06017102	-0.00715196	0.02868077	0.11980621	-0.01765440	0.04257390	0.00396703	0.00972499	-0.00260668	-0.00525134	0.01763409	0.00491415
20	0.19000000	0.03345486	-0.27944295	-0.01922261	0.10058543	0.00452726	0.03135437	0.07754968	0.00559852	-0.06731690	0.14108068	-0.00459783	-0.09102094	0.06301703	0.00432323	0.03690858	0.11562086	-0.02270870	0.04319218	0.00639099	0.01003809	-0.00424580	-0.00981210	0.01624350	0.00677963
21	0.20000000	0.04965117	-0.25606032	-0.03944025	0.09675123	0.00745566	0.03372784	0.06515877	0.00413348	-0.06878085	0.13866352	-0.01317093	-0.10258662	0.04839693	0.00284688	0.04173060	0.10995858	-0.02115858	0.03531680	0.00960677	0.01313537	-0.00425392	-0.01025815	0.01430288	0.00656107
22	0.21000000	0.05795103	-0.24682759	-0.04821955	0.08853385	0.00168500	0.03189611	0.05401367	0.00396503	-0.06687794	0.13767796	-0.01120391	-0.10484426	0.03177624	-0.00263279	0.03818581	0.09019083	-0.03085821	0.03893346	0.00873141	0.00861983	-0.00520691	-0.00454930	0.00994023	0.00650027
23	0.22000000	0.06159826	-0.24388755	-0.05916136	0.07868681	0.00671259	0.03119589	0.05257664	0.01156026	-0.07409276	0.12805617	-0.01289997	-0.10366863	0.02596506	-0.00619478	0.03508206	0.07580486	-0.03475917	0.03655531	0.00652607	0.00654606	-0.00369662	0.00199978	0.00792930	0.00262063
24	0.23000000	0.07429999	-0.23095073	-0.06746937	0.06932194	0.01089838	0.02016831	0.05291527	0.01485027	-0.07683406	0.12546327	-0.00367314	-0.09678862	0.02147962	-0.00821244	0.04983466	0.05342254	-0.04141389	0.04282972	0.00392000	0.01049376	-0.00691682	-0.00280516	0.00788061	0.00448950
25	0.24000000	0.08123086	-0.20718183	-0.07252369	0.05442451	0.01598344	0.01173244	0.04482724	0.01375210	-0.08055303	0.12479581	-0.00413102	-0.08560509	0.01442738	-0.00606430	0.05998621	0.03538064	-0.04348660	0.04822838	0.00454029	0.00978179	-0.00616086	-0.00001693	0.00550872	0.00018510
26	0.25000000	0.09474918	-0.17583733	-0.07257239	0.03703563	0.02275694	-0.00305681	0.04197659	0.01626038	-0.08124144	0.12227044	-0.01089681	-0.07400843	0.00147828	-0.00582630	0.05944071	0.02473929	-0.04228487	0.05385018	0.00616581	0.00570766	-0.00581024	0.00255899	0.00399406	-0.00091821
27	0.26000000	0.10239156	-0.14770723	-0.06324153	0.02835618	0.02901813	-0.00887114	0.07203065	0.02377174	-0.07583322	0.10909396	-0.01773267	-0.06000880	-0.02031165	-0.01024565	0.04885888	0.01407596	-0.03696382	0.06662066	0.01275315	-0.00128745	-0.01189104	0.00516549	-0.00049069	-0.00586321
